mtllib model_0.mtl
o model_0
v -0.19934117794036865 0.38377970457077026 3.0110580921173096 
v -0.19934117794036865 0.0002899839892052114 2.819645881652832 
v 0.19934216141700745 0.38377970457077026 3.0110580921173096 
v 0.19934216141700745 0.0002899839892052114 2.819645881652832 
v 0.19934216141700745 -0.3472294509410858 3.014002799987793 
v 0.19934216141700745 0.0002899839892052114 2.819645881652832 
v -0.19934117794036865 -0.3472294509410858 3.014002799987793 
v -0.19934117794036865 0.0002899839892052114 2.819645881652832 
v 0.19934216141700745 0.38377970457077026 3.0110580921173096 
v 0.19934216141700745 0.0002899839892052114 2.819645881652832 
v 0.15645980834960938 0.2062489092350006 1.9671263694763184 
v 0.15645980834960938 0.0002899839892052114 1.9671263694763184 
v 0.12778988480567932 0.1406901627779007 0.9349740147590637 
v 0.12778988480567932 0.0002899839892052114 0.9349740147590637 
v 0.15645980834960938 -0.20624911785125732 1.9671263694763184 
v 0.12778988480567932 -0.14069035649299622 0.9349740147590637 
v 0.2508009672164917 -0.5938000082969666 0.9349740147590637 
v -0.2508000135421753 -0.5938000082969666 0.9349740147590637 
v 0.0207065362483263 0.0002899839892052114 0 
v -0.020705562084913254 0.0002899839892052114 0 
v -0.2508000135421753 -0.5938000082969666 0.9349740147590637 
v -0.2508000135421753 0.0002899839892052114 0.9349740147590637 
v -0.020705562084913254 0.0002899839892052114 0 
v -0.2508000135421753 0.5937998294830322 0.9349740147590637 
v -0.12778891623020172 0.1406901627779007 0.9349740147590637 
v 0.12778988480567932 0.1406901627779007 0.9349740147590637 
v -0.2508000135421753 0.5937998294830322 0.9349740147590637 
v 0.2508009672164917 0.5937998294830322 0.9349740147590637 
v 0.12778988480567932 -0.14069035649299622 0.9349740147590637 
v 0.15645980834960938 -0.20624911785125732 1.9671263694763184 
v -0.12778891623020172 -0.14069035649299622 0.9349740147590637 
v -0.15645882487297058 -0.20624911785125732 1.9671263694763184 
v -0.19934117794036865 -0.3472294509410858 3.014002799987793 
v 0.19934216141700745 -0.3472294509410858 3.014002799987793 
v 0.12778988480567932 -0.14069035649299622 0.9349740147590637 
v -0.12778891623020172 -0.14069035649299622 0.9349740147590637 
v 0.2508009672164917 -0.5938000082969666 0.9349740147590637 
v -0.2508000135421753 -0.5938000082969666 0.9349740147590637 
v 0.0207065362483263 0.0002899839892052114 0 
v -0.020705562084913254 0.0002899839892052114 0 
v 0.2508009672164917 0.5937998294830322 0.9349740147590637 
v -0.2508000135421753 0.5937998294830322 0.9349740147590637 
v -0.12778891623020172 0.1406901627779007 0.9349740147590637 
v -0.15645882487297058 0.2062489092350006 1.9671263694763184 
v 0.12778988480567932 0.1406901627779007 0.9349740147590637 
v 0.15645980834960938 0.2062489092350006 1.9671263694763184 
v -0.19934117794036865 0.38377970457077026 3.0110580921173096 
v 0.19934216141700745 0.38377970457077026 3.0110580921173096 
v 0.2508009672164917 -0.5938000082969666 0.9349740147590637 
v 0.0207065362483263 0.0002899839892052114 0 
v 0.2508009672164917 0.0002899839892052114 0.9349740147590637 
v 0.2508009672164917 0.5937998294830322 0.9349740147590637 
v -0.2508000135421753 -0.5938000082969666 0.9349740147590637 
v -0.12778891623020172 -0.14069035649299622 0.9349740147590637 
v -0.2508000135421753 0.0002899839892052114 0.9349740147590637 
v -0.12778891623020172 0.0002899839892052114 0.9349740147590637 
v -0.12778891623020172 0.1406901627779007 0.9349740147590637 
v -0.19934117794036865 0.38377970457077026 3.0110580921173096 
v -0.15645882487297058 0.2062489092350006 1.9671263694763184 
v -0.19934117794036865 0.0002899839892052114 2.819645881652832 
v -0.15645882487297058 0.0002899839892052114 1.9671263694763184 
v -0.15645882487297058 -0.20624911785125732 1.9671263694763184 
v -0.12778891623020172 -0.14069035649299622 0.9349740147590637 
v -0.12778891623020172 0.1406901627779007 0.9349740147590637 
v -0.12778891623020172 0.0002899839892052114 0.9349740147590637 
v 0.2508009672164917 -0.5938000082969666 0.9349740147590637 
v 0.2508009672164917 0.0002899839892052114 0.9349740147590637 
v 0.12778988480567932 -0.14069035649299622 0.9349740147590637 
v 0.12778988480567932 0.0002899839892052114 0.9349740147590637 
v 0.12778988480567932 0.1406901627779007 0.9349740147590637 
v 0.2508009672164917 0.5937998294830322 0.9349740147590637 
v -0.2508000135421753 0.5937998294830322 0.9349740147590637 
v -0.19934117794036865 -0.3472294509410858 3.014002799987793 
v 0.19934216141700745 -0.3472294509410858 3.014002799987793 
vn 0.001881469041109085 -0.44676944613456726 0.8946471214294434 
vn 0.001881469041109085 -0.44676944613456726 0.8946471214294434 
vn 0.001881469041109085 -0.44676944613456726 0.8946471214294434 
vn 0.001881469041109085 -0.44676944613456726 0.8946471214294434 
vn -5.048449858028117e-14 0.4892406165599823 0.872148871421814 
vn -5.048449858028117e-14 0.4892406165599823 0.872148871421814 
vn -5.048449858028117e-14 0.4892406165599823 0.872148871421814 
vn -5.048449858028117e-14 0.4892406165599823 0.872148871421814 
vn 0.9986907839775085 0.02265716902911663 -0.04586252197623253 
vn 0.9989477396011353 0 -0.04586252197623253 
vn 0.9993103742599487 0 -0.03713129088282585 
vn 0.9993103742599487 0 -0.03713129088282585 
vn 0.9995967149734497 0 -0.028397228568792343 
vn 0.9995967149734497 0 -0.028397228568792343 
vn 0.9993103742599487 0 -0.03713129088282585 
vn 0.9995967149734497 0 -0.028397228568792343 
vn 0.003777687903493643 -0.844132125377655 -0.5361219048500061 
vn 0.003777687903493643 -0.844132125377655 -0.5361219048500061 
vn 0.003777687903493643 -0.844132125377655 -0.5361219048500061 
vn 0.003777687903493643 -0.844132125377655 -0.5361219048500061 
vn -0.9707403779029846 -2.00771541861329e-13 -0.2401314377784729 
vn -0.9707403779029846 -2.00771541861329e-13 -0.2401314377784729 
vn -0.9707403779029846 -2.00771541861329e-13 -0.2401314377784729 
vn -0.9707403779029846 -2.00771541861329e-13 -0.2401314377784729 
vn 0 0 1 
vn 0 0 1 
vn 0 0 1 
vn 0 0 1 
vn -0.0018864546436816454 -0.9979918599128723 -0.0633138045668602 
vn 3.091785725009566e-13 -0.995171308517456 -0.0981530249118805 
vn -0.0018864546436816454 -0.9979918599128723 -0.0633138045668602 
vn 3.091785725009566e-13 -0.995171308517456 -0.0981530249118805 
vn 0.001887112041004002 -0.9911313652992249 -0.1328723281621933 
vn 0.001887112041004002 -0.9911313652992249 -0.1328723281621933 
vn 0 0 1 
vn 0 0 1 
vn 0 0 1 
vn 0 0 1 
vn 0.003777687903493643 0.844132125377655 -0.5361219048500061 
vn 0.003777687903493643 0.844132125377655 -0.5361219048500061 
vn 0.003777687903493643 0.844132125377655 -0.5361219048500061 
vn 0.003777687903493643 0.844132125377655 -0.5361219048500061 
vn -0.0018864546436816454 0.9979918599128723 -0.0633138045668602 
vn -0.0018866714090108871 0.9933021664619446 -0.11553031951189041 
vn -0.0018864546436816454 0.9979918599128723 -0.0633138045668602 
vn -0.0018866714090108871 0.9933021664619446 -0.11553031951189041 
vn -1.0195180610112972e-13 0.9858840703964233 -0.16742929816246033 
vn -1.0195180610112972e-13 0.9858840703964233 -0.16742929816246033 
vn 0.9707403779029846 0 -0.2401314377784729 
vn 0.9707403779029846 0 -0.2401314377784729 
vn 0.9707403779029846 0 -0.2401314377784729 
vn 0.9707403779029846 0 -0.2401314377784729 
vn 0 0 1 
vn 0 0 1 
vn 0 0 1 
vn 0 0 1 
vn 0 0 1 
vn -0.9987692832946777 0.01888146810233593 -0.04586252197623253 
vn -0.9993103742599487 -2.0668048435895647e-13 -0.03713129088282585 
vn -0.998940646648407 -0.0037765095476061106 -0.04586252197623253 
vn -0.9993103742599487 -2.0668048435895647e-13 -0.03713129088282585 
vn -0.9993103742599487 -2.0668048435895647e-13 -0.03713129088282585 
vn -0.9995967149734497 -2.0673969535010134e-13 -0.028397228568792343 
vn -0.9995967149734497 -2.0673969535010134e-13 -0.028397228568792343 
vn -0.9995967149734497 -2.0673969535010134e-13 -0.028397228568792343 
vn 0 0 1 
vn 0 0 1 
vn 0 0 1 
vn 0 0 1 
vn 0 0 1 
vn 0 0 1 
vn 0 0 1 
vn -0.9985979795455933 -0.026432543992996216 -0.04586252197623253 
vn 0.9986907839775085 -0.02265716902911663 -0.04586252197623253 
s on 
f 1//1 2//2 3//3 
f 2//2 4//4 3//3 
f 3//3 4//4 4//4 
f 4//4 5//5 4//4 
f 4//4 5//5 5//5 
f 5//5 6//6 5//5 
f 5//5 6//6 7//7 
f 6//6 8//8 7//7 
f 7//7 8//8 8//8 
f 8//8 9//9 8//8 
f 8//8 9//9 9//9 
f 9//9 10//10 9//9 
f 9//9 10//10 11//11 
f 10//10 12//12 11//11 
f 11//11 12//12 13//13 
f 12//12 14//14 13//13 
f 13//13 14//14 14//14 
f 14//14 10//10 14//14 
f 14//14 10//10 10//10 
f 10//10 15//15 10//10 
f 10//10 15//15 12//12 
f 15//15 16//16 12//12 
f 12//12 16//16 14//14 
f 16//16 14//14 14//14 
f 14//14 14//14 17//17 
f 14//14 17//17 17//17 
f 17//17 17//17 17//17 
f 17//17 18//18 17//17 
f 17//17 18//18 19//19 
f 18//18 20//20 19//19 
f 19//19 20//20 20//20 
f 20//20 21//21 20//20 
f 20//20 21//21 21//21 
f 21//21 22//22 21//21 
f 21//21 22//22 23//23 
f 22//22 24//24 23//23 
f 23//23 24//24 24//24 
f 24//24 25//25 24//24 
f 24//24 25//25 25//25 
f 25//25 26//26 25//25 
f 25//25 26//26 27//27 
f 26//26 28//28 27//27 
f 27//27 28//28 28//28 
f 28//28 29//29 28//28 
f 28//28 29//29 29//29 
f 29//29 30//30 29//29 
f 29//29 30//30 31//31 
f 30//30 32//32 31//31 
f 31//31 32//32 32//32 
f 32//32 30//30 32//32 
f 32//32 30//30 33//33 
f 30//30 34//34 33//33 
f 33//33 34//34 34//34 
f 34//34 35//35 34//34 
f 34//34 35//35 35//35 
f 35//35 36//36 35//35 
f 35//35 36//36 37//37 
f 36//36 38//38 37//37 
f 37//37 38//38 38//38 
f 38//38 39//39 38//38 
f 38//38 39//39 39//39 
f 39//39 40//40 39//39 
f 39//39 40//40 41//41 
f 40//40 42//42 41//41 
f 41//41 42//42 42//42 
f 42//42 43//43 42//42 
f 42//42 43//43 43//43 
f 43//43 44//44 43//43 
f 43//43 44//44 45//45 
f 44//44 46//46 45//45 
f 45//45 46//46 46//46 
f 46//46 44//44 46//46 
f 46//46 44//44 44//44 
f 44//44 47//47 44//44 
f 44//44 47//47 46//46 
f 47//47 48//48 46//46 
f 46//46 48//48 48//48 
f 48//48 49//49 48//48 
f 48//48 49//49 49//49 
f 49//49 50//50 49//49 
f 49//49 50//50 51//51 
f 50//50 52//52 51//51 
f 51//51 52//52 52//52 
f 52//52 53//53 52//52 
f 52//52 53//53 53//53 
f 53//53 54//54 53//53 
f 53//53 54//54 55//55 
f 54//54 56//56 55//55 
f 55//55 56//56 57//57 
f 56//56 57//57 57//57 
f 57//57 57//57 58//58 
f 57//57 58//58 58//58 
f 58//58 58//58 58//58 
f 58//58 59//59 58//58 
f 58//58 59//59 60//60 
f 59//59 61//61 60//60 
f 60//60 61//61 62//62 
f 61//61 63//63 62//62 
f 62//62 63//63 63//63 
f 63//63 59//59 63//63 
f 63//63 59//59 59//59 
f 59//59 64//64 59//59 
f 59//59 64//64 61//61 
f 64//64 65//65 61//61 
f 61//61 65//65 63//63 
f 65//65 63//63 63//63 
f 63//63 63//63 66//66 
f 63//63 66//66 66//66 
f 66//66 66//66 66//66 
f 66//66 67//67 66//66 
f 66//66 67//67 68//68 
f 67//67 69//69 68//68 
f 68//68 69//69 69//69 
f 69//69 67//67 69//69 
f 69//69 67//67 70//70 
f 67//67 71//71 70//70 
f 57//57 72//72 55//55 
f 62//62 73//73 60//60 
f 10//10 74//74 15//15 

