mtllib model_19.mtl
o model_19
v -190.53599548339844 -7.874019769538165e-10 -190.53599548339844 
v -190.53599548339844 -7.874019769538165e-10 190.47669982910156 
v 190.47669982910156 -7.874019769538165e-10 -190.53599548339844 
v 190.47669982910156 -7.874019769538165e-10 190.47669982910156 
vn -1.0341130485562108e-13 0.999997615814209 0.002184694167226553 
vn -1.0341130485562108e-13 0.999997615814209 0.002184694167226553 
vn -1.0341130485562108e-13 0.999997615814209 0.002184694167226553 
vn -1.0341130485562108e-13 0.999997615814209 0.002184694167226553 
vt 0 1.0000005960464478 
vt 0 0 
vt 1.0000005960464478 1.0000005960464478 
vt 1.0000005960464478 0 
s on 
f 1/1/1 2/2/2 3/3/3 
f 2/2/2 4/4/4 3/3/3 

